<svg xmlns="http://www.w3.org/2000/svg" viewBox="0 0 608.41 190.9"><defs><style>.cls-1{fill:#0068b7;}.cls-2{fill:#231815;}</style></defs><title>アセット 1</title><g id="レイヤー_2" data-name="レイヤー 2"><g id="レイヤー_1-2" data-name="レイヤー 1"><path class="cls-1" d="M159.38,12.3c-14,7.79-29.05,19.21-41.22,29.28.29-10.43-3.46-19.77-14.5-25.75C72.06-1.28,19.75,53.86,0,99.48c0,0,44.12-64.61,76.56-56.3C96.73,48.37,65.21,93,59.31,102.55c-19,30.91-18.46,44.46-11.82,55,8.78,13.94,35.73,27,91.53-35.93,0,0-38.72,25-51.13,21.36-16-4.71-5.12-27,7-46,12.27-16.13,31.75-37.76,54-47.83,31.5-14.25,24.5,11.84,8.29,26.13s-42.63,32.66-71.39,41.58c0,0,47.31,7.12,110.41-48.71C248.31,22,221.24-22.16,159.38,12.3"/><path class="cls-2" d="M247.25,108.15c0,2.24,0,11.3.23,13a2.79,2.79,0,0,1-2.53,1c-1.15-1.54-3.31-4-8.63-10.11L219,92.36c-4.79-5.41-7.16-8.22-8.41-9.33-.23,0-.23.82-.23,4.75v14.4c0,5.54.08,12.33,1.34,14.54.65,1.12,1.91,1.54,3.77,1.85l1.63.24c.65.49.58,1.91-.15,2.13-2.73-.15-5.62-.22-8.42-.22-3.1,0-5.09.07-7.69.22a1.5,1.5,0,0,1-.14-2.13l1.62-.38c1.41-.23,2.74-.53,3.27-1.71,1-2.28,1-8.7,1-14.54V84.66c0-5.75.07-6.95-2.44-9.09a11.78,11.78,0,0,0-3.91-1.47l-1.1-.23c-.53-.44-.45-1.9.29-2.12,2.79.29,6.87.22,8.71.22,1.57,0,3.33-.07,5.11-.22,1.25,3.16,9.3,12.47,11.89,15.27l7.39,8c3.1,3.4,10,11.24,10.7,11.68.21-.23.21-.61.21-1.79V90.51c0-5.56-.06-12.35-1.39-14.56-.66-1.09-1.84-1.55-3.69-1.85l-1.71-.23c-.66-.51-.59-1.9.16-2.12,2.87.14,5.61.22,8.49.22,3.17,0,5.09-.07,7.75-.22a1.51,1.51,0,0,1,.16,2.12l-1.71.37c-1.41.24-2.66.52-3.18,1.71-1,2.29-1,8.71-1,14.56Z"/><path class="cls-2" d="M264.25,82.61c0-7.84-.67-8.06-4.15-8.58l-1.18-.15c-.51-.51-.44-1.83.15-2.12,2.82.14,6.28.21,9.54.21h14.11c4.73,0,9-.07,10-.21.29,1.23.75,7.08,1.2,10.26-.31.6-1.78.74-2.38.29-1.18-4.28-2.29-6.15-4.65-6.73a21.89,21.89,0,0,0-5.91-.66h-5c-3.17,0-3.17.15-3.17,4.35V91.76c0,1.93.08,2,1.78,2h3.54c6.43,0,7.68-.06,8.2-3.23l.52-2.52a1.9,1.9,0,0,1,2.36.05c-.07,2-.22,4.67-.22,7.41s.16,5.39.22,7.76a2.06,2.06,0,0,1-2.36.06l-.52-2.94c-.52-3.11-1.77-3.25-8.2-3.25h-3.54c-1.7,0-1.78.14-1.78,2v9.41c0,3.77.14,6.42,1.26,7.68.87,1,2.14,1.61,8.34,1.61,9.39.14,11-2,13.59-8a1.77,1.77,0,0,1,2.37.44A48.74,48.74,0,0,1,295.28,121c-3.27-.15-9.61-.22-18.27-.22h-8.41c-3.26,0-7.77.07-11.08.22a1.57,1.57,0,0,1-.15-2.13l2.73-.29c3.48-.38,4.15-.62,4.15-8.45Z"/><path class="cls-2" d="M326.9,73.73c11.73,0,16.77,12.93,16.77,24.08,0,14.87-6.79,21.13-15.22,21.13-12.65,0-17-13.88-17-24.09,0-15.72,8.06-21.12,15.44-21.12m1-3c-15.52,0-26.45,11.15-26.45,26.23,0,13.15,9.6,24.91,26.3,24.91,14.93,0,26-10.86,26-25.41,0-13.47-8.79-25.73-25.86-25.73"/><path class="cls-2" d="M230.77,133.07a5.78,5.78,0,0,1,1.77,4.53c0,2.85-1.51,4.17-2.21,4.17a1.92,1.92,0,0,1-1.69-1c-1.94-2.57-4.61-5.41-8.07-5.41-5,0-10.29,5-10.29,13.31,0,7.18,4.62,14,12.67,14,5.78,0,7.81-2.15,9.58-4.72a1.78,1.78,0,0,1,1.88,1.62c-3.2,7.16-10,9.65-15.62,9.65a18.14,18.14,0,0,1-12.33-4.79,17.89,17.89,0,0,1-5.15-12.78c0-10.35,7.55-19.85,21.83-19.85a22.48,22.48,0,0,1,7.62,1.24"/><path class="cls-2" d="M247.28,149.84c0-9.84,3.52-14.47,8.05-14.47,6.56,0,9.13,8.8,9.13,16.23,0,6.81-1.79,14.1-7.88,14.1-6.4,0-9.3-7.81-9.3-15.86m8.94-18c-10.38,0-19.41,7.44-19.41,19.34,0,11.59,8.51,18.07,18.69,18.07,10.56,0,19.42-6.55,19.42-19.15,0-11.52-8.68-18.26-18.7-18.26"/><path class="cls-2" d="M285.55,144.43c0-4,0-5.07-2.2-6.39l-1.07-.63a2.27,2.27,0,0,1,.1-2,62.47,62.47,0,0,0,11.16-4.78,1.28,1.28,0,0,1,1.25.8c-.11,1.68-.2,3.18-.2,4a1,1,0,0,0,.91,1.07c2.75-1.92,5.67-4.61,8.68-4.61s4.89,2,4.89,4.33a4.91,4.91,0,0,1-5,5.17,4.38,4.38,0,0,1-2.4-.73,8,8,0,0,0-4.25-1.67c-2.05,0-2.56,2-2.56,6.37v12.15c0,6.56.34,7.52,3.44,7.89l3.47.36c.62.61.52,2.22-.17,2.56-5.32-.15-8.33-.25-11.61-.25-2.93,0-5.85.09-9.22.25-.72-.34-.81-1.94-.19-2.56l1.6-.27c3-.46,3.37-1.42,3.37-8Z"/><path class="cls-2" d="M324.65,144.77c0-3.71.28-5.21,1-6a6.64,6.64,0,0,1,4.79-1.78c6.91,0,11.25,5.75,11.25,14.2,0,8.14-3.36,14.52-9.48,14.52a8.89,8.89,0,0,1-4.7-1.77c-1.86-1.59-2.85-2.94-2.85-5.67Zm-9.3,35.31c0,6.55-.35,7.53-3.37,8l-2.3.27c-.61.62-.53,2.23.17,2.58,3.55-.2,7-.27,9.94-.27,3.27,0,6.73.08,11.33.27.71-.36.8-2,.18-2.58l-3.19-.37c-3.11-.35-3.46-1.32-3.46-7.87v-8.69c0-1.79.53-2.32,1.34-2.5a24.44,24.44,0,0,0,3.91.37c13,0,21.72-8.7,21.72-21,0-9.13-5.6-16.4-15.25-16.4-4.61,0-9.85,3.29-11,3.82a1.12,1.12,0,0,1-.72-1.14,25,25,0,0,1,.46-3.47,1.39,1.39,0,0,0-1.4-.89,49.13,49.13,0,0,1-11.55,5.22,1.93,1.93,0,0,0-.09,2l1.08.72c2.21,1.6,2.21,2.32,2.21,6.3Z"/><path class="cls-2" d="M367.56,149.84c0-9.84,3.55-14.47,8.07-14.47,6.57,0,9.15,8.8,9.15,16.23,0,6.81-1.78,14.1-7.91,14.1-6.38,0-9.31-7.81-9.31-15.86m9-18c-10.36,0-19.42,7.44-19.42,19.34,0,11.59,8.52,18.07,18.71,18.07,10.56,0,19.41-6.55,19.41-19.15,0-11.52-8.68-18.26-18.7-18.26"/><path class="cls-2" d="M405.86,144.43c0-4,0-5.07-2.2-6.39l-1.08-.63a2.3,2.3,0,0,1,.09-2,62.15,62.15,0,0,0,11.17-4.78,1.27,1.27,0,0,1,1.24.8c-.09,1.68-.18,3.18-.18,4a1,1,0,0,0,.88,1.07c2.75-1.92,5.67-4.61,8.69-4.61s4.88,2,4.88,4.33a4.91,4.91,0,0,1-5,5.17,4.39,4.39,0,0,1-2.38-.73,8,8,0,0,0-4.25-1.67c-2,0-2.58,2-2.58,6.37v12.15c0,6.56.35,7.52,3.46,7.89l3.46.36c.63.61.55,2.22-.19,2.56-5.31-.15-8.33-.25-11.61-.25-2.91,0-5.84.09-9.21.25-.72-.34-.81-1.94-.2-2.56l1.61-.27c3-.46,3.37-1.42,3.37-8Z"/><path class="cls-2" d="M450.46,160.1c-.09,2.14-1.06,4.26-4.26,4.26a5,5,0,0,1-5-5.13c0-3.8,2.3-5.05,4.79-5.93a13.7,13.7,0,0,1,3.88-1.06c.45,0,.73.5.73,1.48Zm9.48-17.18c.36-7.8-4-11.09-11-11.09-4.51,0-10.91,3-13.64,5.57-2.93,2.75-3.46,4.62-3.46,5.68,0,.8.53,1.41,1.67,1.41a12.42,12.42,0,0,0,5.68-1.59,3.78,3.78,0,0,0,1.69-3.2,4.35,4.35,0,0,1,4.7-3.91c4.33,0,5.58,3.91,5.42,8.44l-.11,2.31c0,.88-.25,1.67-2,2.31-3.29,1.22-6.66,2.47-9.75,3.54-6.12,2.12-7.37,5-7.37,8.24,0,4.43,3,8.59,9,8.59a14.19,14.19,0,0,0,7.54-2.31c1.31-.8,1.94-1.23,2.38-1.23s.8.43,1.42,1.06a8.47,8.47,0,0,0,6.37,2.48c2.76,0,7.1-1.42,8.89-3.9.25-.79-.37-1.78-.82-1.78a8.14,8.14,0,0,1-3,1c-3.17,0-4.5-2.67-4.24-7.8Z"/><path class="cls-2" d="M484.59,137c-1.61,0-1.69.17-1.69,3v13.66c0,5.57.8,10.53,6.47,10.53a6.85,6.85,0,0,0,4.25-1.59,1.37,1.37,0,0,1,1.13,1.77c-1.75,2.49-5.83,4.88-11.24,4.88-8.43,0-9.91-4.88-9.91-11.08v-18c0-3.1-.2-3.19-1.62-3.19h-3.1a1.47,1.47,0,0,1-.25-2.41,27.39,27.39,0,0,0,7-3.71,16.29,16.29,0,0,0,4.88-5.5,1.88,1.88,0,0,1,2.48.45v5.31c0,1.43,0,1.71,1.69,1.71h8.79c.53.25.68,1,.68,1.83A2.74,2.74,0,0,1,493,137Z"/><path class="cls-2" d="M511.72,157.45c0,6.56.35,7.52,3.35,8l1.61.27c.61.61.54,2.22-.17,2.56-3.3-.15-6.29-.25-9.58-.25-2.92,0-5.92.09-9.32.25-.7-.34-.79-1.94-.17-2.56l1.6-.27c3-.46,3.39-1.42,3.39-8v-13c0-4,0-5.07-2.25-6.39l-1.06-.63a2.41,2.41,0,0,1,.08-2,52.16,52.16,0,0,0,11.53-4.78,1.62,1.62,0,0,1,1.24.71c-.19,2.93-.26,7.18-.26,10.82Zm-10.37-42.89a5.67,5.67,0,1,1,5.66,5.56,5.42,5.42,0,0,1-5.66-5.56"/><path class="cls-2" d="M531.57,149.84c0-9.84,3.55-14.47,8.07-14.47,6.55,0,9.14,8.8,9.14,16.23,0,6.81-1.78,14.1-7.91,14.1-6.38,0-9.3-7.81-9.3-15.86m9-18c-10.37,0-19.42,7.44-19.42,19.34,0,11.59,8.51,18.07,18.7,18.07,10.56,0,19.42-6.55,19.42-19.15,0-11.52-8.69-18.26-18.7-18.26"/><path class="cls-2" d="M579.1,157.45c0,6.56.33,7.52,3.35,8.06l1.33.18c.63.61.55,2.22-.17,2.55-3.1-.15-6.12-.24-9.4-.24-2.83,0-5.85.09-9.58.24-.7-.33-.8-1.94-.17-2.55l1.94-.27c3-.46,3.38-1.42,3.38-8v-13c0-4,0-5.07-2.2-6.39l-1.09-.63a2.33,2.33,0,0,1,.09-2,60,60,0,0,0,11.51-4.78,1.25,1.25,0,0,1,1.18.71,39.05,39.05,0,0,0-.18,4.07c0,.63.26.8.78.9,4.18-2.32,6.65-4.44,12.16-4.44,7.17,0,10.53,5,10.53,11.88v13.74c0,6.56.36,7.52,3.38,8l2,.27c.62.61.53,2.22-.17,2.55-3.73-.15-6.75-.24-10-.24-2.94,0-6,.09-9,.24-.71-.33-.79-1.94-.19-2.55l1.34-.18c3-.54,3.36-1.5,3.36-8.06V145.21c0-4.5-1.77-8.07-7.1-8.07a7.29,7.29,0,0,0-5.84,2.75c-1.15,1.59-1.23,2.4-1.23,5.69Z"/></g></g></svg>